<svg width="216" height="53" viewBox="0 0 216 53" fill="none" xmlns="http://www.w3.org/2000/svg">
<g clip-path="url(#clip0_1_51)">
<g clip-path="url(#clip1_1_51)">
<path d="M215.73 0.5H0.00639343V52.42H215.73V0.5Z" fill="#C5222A"/>
<path d="M16.2233 23.8444C16.2233 29.9911 20.3428 35.1569 29.8899 35.1569C34.3364 35.1569 37.5406 32.8683 39.5023 30.3181L45.3221 36.007V22.7328H34.3364C34.3364 29.0102 32.7017 31.7567 30.5438 31.7567C28.3859 31.7567 26.6204 29.9257 26.6204 23.6482C26.6204 17.8938 27.9281 15.9322 32.8978 15.9322C36.2982 15.9322 42.641 17.8285 45.3221 19.3978V12.5318H31.0669C19.9505 12.5318 16.2233 17.6977 16.2233 23.8444Z" fill="white"/>
<path d="M96.7843 26.264C96.7843 21.6212 95.6727 17.8285 86.9104 17.8285H74.4208V35.157H82.5293V26.264C82.5293 21.2943 83.8371 20.3788 85.4718 20.3788C87.1066 20.3788 88.4144 21.2943 88.4144 26.264V28.8796L96.7843 26.264Z" fill="white"/>
<path d="M60.035 17.3053C51.2726 17.3053 48.4608 21.7519 48.4608 26.46C48.4608 31.1027 51.2726 35.6146 60.035 35.6146C68.7973 35.6146 71.6091 31.1681 71.6091 26.46C71.6091 21.7519 68.7319 17.3053 60.035 17.3053ZM60.035 33.0644C58.4002 33.0644 57.0923 32.0836 57.0923 26.46C57.0923 20.8363 58.4002 19.8556 60.035 19.8556C61.6697 19.8556 62.9776 20.8363 62.9776 26.46C62.9776 32.0836 61.6697 33.0644 60.035 33.0644Z" fill="white"/>
<path d="M162.24 17.8285H150.077V35.157H158.448V26.264C158.448 21.2943 159.493 20.3788 161.129 20.3788C162.763 20.3788 163.81 21.2943 163.81 26.264V35.0916H172.179V26.264C172.114 21.6212 171.656 17.8285 162.24 17.8285Z" fill="white"/>
<path d="M109.862 17.8285C101.1 17.8285 98.8113 21.8174 98.8113 26.4601C98.8113 31.1028 101.1 35.0916 109.862 35.0916C110.451 35.0916 111.824 35.0916 113.001 35.0916C112.674 38.0996 111.366 39.2767 109.405 39.2767C106.135 39.2767 102.342 37.3803 100.381 36.661V41.5653C100.381 41.5653 105.808 42.4153 109.536 42.4153C118.363 42.4153 120.914 37.7727 120.914 32.3453V17.8285C120.979 17.8285 111.563 17.8285 109.862 17.8285ZM110.189 32.5414C108.554 32.5414 107.247 31.4298 107.247 26.4601C107.247 21.4904 108.554 20.3788 110.189 20.3788C111.824 20.3788 113.132 21.4904 113.132 26.4601C113.132 31.4298 111.824 32.5414 110.189 32.5414Z" fill="white"/>
<path d="M123.726 26.4601C123.726 31.1028 126.014 35.0916 134.776 35.0916C136.411 35.0916 145.827 35.0916 145.827 35.0916V17.8285C145.827 17.8285 136.411 17.8285 134.776 17.8285C126.014 17.8285 123.726 21.752 123.726 26.4601ZM137.981 26.4601C137.981 31.4298 136.672 32.5414 135.038 32.5414C133.402 32.5414 132.095 31.4298 132.095 26.4601C132.095 21.4904 133.402 20.3788 135.038 20.3788C136.672 20.3788 137.981 21.4904 137.981 26.4601Z" fill="white"/>
<path d="M189.181 17.8285V26.264C189.181 31.2336 188.134 32.5414 186.5 32.5414C184.865 32.5414 183.819 31.2336 183.819 26.264V17.8285H175.449V26.264C175.449 30.9067 177.149 35.0916 185.911 35.0916H189.05C188.723 38.0996 187.416 39.2767 185.453 39.2767C182.25 39.2767 178.653 37.3803 176.757 36.661V41.5653C176.757 41.5653 181.923 42.4153 185.649 42.4153C194.478 42.4153 197.551 37.7727 197.551 32.3453V17.8285H189.181Z" fill="white"/>
</g>
</g>
<defs>
<clipPath id="clip0_1_51">
<rect width="216" height="51.92" fill="white" transform="translate(0 0.5)"/>
</clipPath>
<clipPath id="clip1_1_51">
<rect width="215.987" height="51.92" fill="white" transform="translate(0.00639343 0.5)"/>
</clipPath>
</defs>
</svg>
